<?xml version="1.0" standalone="no"?>
<!DOCTYPE svg PUBLIC "-//W3C//DTD SVG 20010904//EN"
 "http://www.w3.org/TR/2001/REC-SVG-20010904/DTD/svg10.dtd">
<svg version="1.0" xmlns="http://www.w3.org/2000/svg"
 width="16.000000pt" height="16.000000pt" viewBox="0 0 16.000000 16.000000"
 preserveAspectRatio="xMidYMid meet">
<metadata>
Created by potrace 1.11, written by Peter Selinger 2001-2013
</metadata>
<g transform="translate(0.000000,16.000000) scale(0.002286,-0.002286)"
fill="#000000" stroke="none">
<path d="M3245 6694 c-16 -2 -73 -9 -125 -15 -653 -72 -1315 -379 -1798 -832
-270 -253 -491 -541 -648 -841 l-66 -126 296 0 296 0 0 -1098 c0 -706 -4
-1128 -11 -1182 -15 -125 -35 -194 -86 -300 -38 -79 -59 -108 -127 -176 -65
-64 -101 -90 -176 -128 -52 -26 -96 -49 -98 -51 -2 -2 18 -38 44 -82 312 -518
763 -941 1292 -1212 346 -176 689 -281 1087 -333 133 -17 617 -17 750 0 857
112 1597 524 2130 1186 312 388 548 900 639 1390 44 232 51 318 51 606 0 288
-7 374 -51 609 -24 130 -104 425 -124 459 -6 11 -9 -330 -10 -1010 l0 -1028
-285 0 -285 0 -2 857 -3 857 -270 -632 -269 -632 -192 0 -191 0 -271 633 -271
632 -1 -857 0 -858 -285 0 -285 0 0 1175 0 1175 384 0 384 0 20 -47 c11 -27
129 -304 262 -618 133 -313 245 -573 249 -577 3 -4 126 273 273 615 l266 622
327 3 326 2 -65 126 c-293 561 -789 1049 -1364 1343 -335 170 -655 271 -1042
327 -100 15 -602 28 -675 18z m-485 -2554 l0 -410 410 0 410 0 0 -185 0 -185
-407 -2 -408 -3 -3 -412 -2 -413 -185 0 -185 0 -2 413 -3 412 -407 3 -408 2 0
185 0 185 410 0 410 0 0 410 0 410 185 0 185 0 0 -410z"/>
<path d="M523 4678 c-100 -252 -167 -515 -205 -803 -8 -61 -13 -207 -13 -375
0 -288 7 -374 51 -609 22 -117 107 -437 119 -449 8 -8 35 20 60 62 56 96 55
80 53 1253 l-3 1078 -62 -157z"/>
</g>
</svg>
